<svg xmlns="http://www.w3.org/2000/svg" xmlns:xlink="http://www.w3.org/1999/xlink" width="500" zoomAndPan="magnify" viewBox="0 0 375 374.999991" height="500" preserveAspectRatio="xMidYMid meet" version="1.0"><defs><g/><clipPath id="a652a7d567"><path d="M 99.164062 122 L 275.414062 122 L 275.414062 226 L 99.164062 226 Z M 99.164062 122 " clip-rule="nonzero"/></clipPath><clipPath id="782b0ec2ec"><rect x="0" width="48" y="0" height="11"/></clipPath><clipPath id="18070bce09"><rect x="0" width="46" y="0" height="13"/></clipPath><clipPath id="0ad800cf00"><rect x="0" width="92" y="0" height="12"/></clipPath></defs><rect x="-37.5" width="450" fill="#ffffff" y="-37.499999" height="449.999989" fill-opacity="1"/><rect x="-37.5" width="450" fill="#e4e2dd" y="-37.499999" height="449.999989" fill-opacity="1"/><g clip-path="url(#a652a7d567)"><path fill="#000000" d="M 275.421875 194.5625 L 274.035156 197.515625 C 263.65625 216.730469 247.625 226.214844 225.945312 225.980469 C 211.640625 225.867188 199.300781 220.832031 188.925781 210.886719 C 188.09375 210.09375 187.300781 209.28125 186.535156 208.457031 C 178.363281 199.664062 173.941406 189.304688 173.273438 177.386719 L 173.273438 166.859375 C 173.273438 158.546875 170.238281 151.386719 164.171875 145.386719 C 158.105469 139.382812 151.027344 136.378906 142.941406 136.378906 C 134.734375 136.378906 127.597656 139.382812 121.535156 145.386719 C 115.46875 151.390625 112.4375 158.546875 112.4375 166.859375 L 112.4375 224.535156 L 99.167969 224.535156 L 99.167969 168.21875 C 99.167969 155.398438 103.320312 144.742188 111.621094 136.253906 C 119.921875 127.761719 130.363281 123.515625 142.933594 123.515625 C 155.390625 123.515625 165.769531 127.765625 174.074219 136.253906 C 177.050781 139.292969 179.488281 142.621094 181.398438 146.21875 C 184.816406 152.660156 186.53125 159.992188 186.53125 168.21875 L 186.53125 171.386719 C 186.472656 172.257812 186.441406 173.132812 186.441406 174.023438 C 186.441406 174.949219 186.46875 175.859375 186.53125 176.765625 C 187.144531 186.371094 191.039062 194.699219 198.214844 201.738281 C 206.0625 209.4375 215.351562 213.230469 226.082031 213.117188 C 241.433594 212.886719 252.914062 206.699219 260.53125 194.558594 L 275.421875 194.558594 Z M 273.339844 150.339844 C 269.652344 142.246094 263.539062 135.542969 255.003906 130.222656 C 246.007812 124.671875 236.320312 121.957031 225.945312 122.070312 C 211.410156 122.304688 198.925781 127.539062 188.488281 137.773438 C 188.226562 138.03125 187.96875 138.285156 187.714844 138.546875 C 190.476562 142.683594 192.382812 147.300781 193.625 152.136719 C 195.191406 150.019531 197.007812 147.992188 199.082031 146.054688 C 207.15625 138.410156 216.273438 134.703125 226.429688 134.9375 C 241.664062 135.289062 252.976562 141.867188 260.363281 154.675781 L 275.25 154.675781 Z M 273.339844 150.339844 " fill-opacity="1" fill-rule="nonzero"/></g><g transform="matrix(1, 0, 0, 1, 164, 281)"><g clip-path="url(#782b0ec2ec)"><g fill="#000000" fill-opacity="1"><g transform="translate(0.993222, 8.572631)"><g><path d="M 4.078125 -5.328125 L 1.3125 -5.328125 L 1.3125 -3.265625 L 4.015625 -3.265625 L 4.015625 -2.71875 L 1.3125 -2.71875 L 1.3125 -0.546875 L 4.203125 -0.546875 L 4.15625 0 L 0.671875 0 L 0.671875 -5.875 L 4.078125 -5.875 Z M 4.078125 -5.328125 "/></g></g></g><g fill="#000000" fill-opacity="1"><g transform="translate(6.934811, 8.572631)"><g><path d="M 2.40625 0.0625 C 1.101562 0.0625 0.382812 -0.535156 0.25 -1.734375 L 0.84375 -1.828125 C 0.925781 -1.359375 1.09375 -1.019531 1.34375 -0.8125 C 1.59375 -0.601562 1.957031 -0.5 2.4375 -0.5 C 2.851562 -0.5 3.175781 -0.585938 3.40625 -0.765625 C 3.632812 -0.953125 3.75 -1.210938 3.75 -1.546875 C 3.75 -1.753906 3.695312 -1.921875 3.59375 -2.046875 C 3.5 -2.171875 3.351562 -2.269531 3.15625 -2.34375 C 2.957031 -2.425781 2.710938 -2.503906 2.421875 -2.578125 C 2.054688 -2.660156 1.738281 -2.757812 1.46875 -2.875 C 1.195312 -2.988281 0.984375 -3.148438 0.828125 -3.359375 C 0.679688 -3.578125 0.609375 -3.878906 0.609375 -4.265625 C 0.609375 -4.585938 0.6875 -4.878906 0.84375 -5.140625 C 1.007812 -5.398438 1.234375 -5.601562 1.515625 -5.75 C 1.804688 -5.894531 2.132812 -5.96875 2.5 -5.96875 C 3.007812 -5.96875 3.425781 -5.828125 3.75 -5.546875 C 4.070312 -5.273438 4.265625 -4.890625 4.328125 -4.390625 L 3.765625 -4.296875 C 3.691406 -4.679688 3.550781 -4.960938 3.34375 -5.140625 C 3.132812 -5.316406 2.847656 -5.40625 2.484375 -5.40625 C 2.109375 -5.40625 1.804688 -5.300781 1.578125 -5.09375 C 1.359375 -4.894531 1.25 -4.628906 1.25 -4.296875 C 1.25 -3.929688 1.363281 -3.664062 1.59375 -3.5 C 1.832031 -3.34375 2.1875 -3.21875 2.65625 -3.125 C 3.019531 -3.039062 3.328125 -2.941406 3.578125 -2.828125 C 3.835938 -2.722656 4.035156 -2.566406 4.171875 -2.359375 C 4.304688 -2.160156 4.375 -1.890625 4.375 -1.546875 C 4.375 -1.222656 4.289062 -0.941406 4.125 -0.703125 C 3.957031 -0.460938 3.722656 -0.273438 3.421875 -0.140625 C 3.128906 -0.00390625 2.789062 0.0625 2.40625 0.0625 Z M 2.40625 0.0625 "/></g></g></g><g fill="#000000" fill-opacity="1"><g transform="translate(12.9427, 8.572631)"><g><path d="M 4.515625 -5.875 L 4.46875 -5.328125 L 2.578125 -5.328125 L 2.578125 0 L 1.9375 0 L 1.9375 -5.328125 L 0.015625 -5.328125 L 0.015625 -5.875 Z M 4.515625 -5.875 "/></g></g></g><g fill="#000000" fill-opacity="1"><g transform="translate(18.511392, 8.572631)"><g><path d="M 0.734375 0.0625 C 0.597656 0.0625 0.488281 0.0195312 0.40625 -0.0625 C 0.332031 -0.144531 0.296875 -0.25 0.296875 -0.375 C 0.296875 -0.507812 0.332031 -0.617188 0.40625 -0.703125 C 0.488281 -0.785156 0.597656 -0.828125 0.734375 -0.828125 C 0.867188 -0.828125 0.976562 -0.785156 1.0625 -0.703125 C 1.144531 -0.617188 1.1875 -0.507812 1.1875 -0.375 C 1.1875 -0.25 1.144531 -0.144531 1.0625 -0.0625 C 0.976562 0.0195312 0.867188 0.0625 0.734375 0.0625 Z M 0.734375 0.0625 "/></g></g></g><g fill="#000000" fill-opacity="1"><g transform="translate(21.436603, 8.572631)"><g><path d="M 1.046875 0 L 1.046875 -0.515625 L 2.359375 -0.515625 L 2.359375 -5.046875 L 1.15625 -4.234375 L 0.859375 -4.671875 L 2.640625 -5.875 L 2.984375 -5.875 L 2.984375 -0.515625 L 4.25 -0.515625 L 4.25 0 Z M 1.046875 0 "/></g></g></g><g fill="#000000" fill-opacity="1"><g transform="translate(27.858831, 8.572631)"><g><path d="M 2.296875 -5.953125 C 2.960938 -5.953125 3.46875 -5.71875 3.8125 -5.25 C 4.164062 -4.78125 4.34375 -4.09375 4.34375 -3.1875 C 4.34375 -2.539062 4.253906 -1.972656 4.078125 -1.484375 C 3.898438 -0.992188 3.640625 -0.609375 3.296875 -0.328125 C 2.960938 -0.0546875 2.550781 0.078125 2.0625 0.078125 C 1.207031 0.078125 0.632812 -0.359375 0.34375 -1.234375 L 0.875 -1.484375 C 0.988281 -1.128906 1.144531 -0.875 1.34375 -0.71875 C 1.550781 -0.5625 1.804688 -0.484375 2.109375 -0.484375 C 2.566406 -0.484375 2.945312 -0.695312 3.25 -1.125 C 3.5625 -1.5625 3.71875 -2.222656 3.71875 -3.109375 L 3.71875 -3.203125 C 3.570312 -2.890625 3.359375 -2.644531 3.078125 -2.46875 C 2.796875 -2.289062 2.472656 -2.203125 2.109375 -2.203125 C 1.765625 -2.203125 1.460938 -2.273438 1.203125 -2.421875 C 0.941406 -2.566406 0.734375 -2.769531 0.578125 -3.03125 C 0.429688 -3.300781 0.359375 -3.613281 0.359375 -3.96875 C 0.359375 -4.351562 0.441406 -4.691406 0.609375 -4.984375 C 0.785156 -5.285156 1.015625 -5.519531 1.296875 -5.6875 C 1.585938 -5.863281 1.921875 -5.953125 2.296875 -5.953125 Z M 2.3125 -5.421875 C 1.914062 -5.421875 1.597656 -5.289062 1.359375 -5.03125 C 1.117188 -4.78125 1 -4.441406 1 -4.015625 C 1 -3.628906 1.109375 -3.316406 1.328125 -3.078125 C 1.546875 -2.847656 1.84375 -2.734375 2.21875 -2.734375 C 2.46875 -2.734375 2.695312 -2.789062 2.90625 -2.90625 C 3.113281 -3.019531 3.273438 -3.179688 3.390625 -3.390625 C 3.515625 -3.597656 3.578125 -3.835938 3.578125 -4.109375 C 3.578125 -4.515625 3.460938 -4.832031 3.234375 -5.0625 C 3.015625 -5.300781 2.707031 -5.421875 2.3125 -5.421875 Z M 2.3125 -5.421875 "/></g></g></g><g fill="#000000" fill-opacity="1"><g transform="translate(34.281059, 8.572631)"><g><path d="M 2.484375 0.0625 C 1.867188 0.0625 1.378906 -0.078125 1.015625 -0.359375 C 0.648438 -0.640625 0.46875 -1.019531 0.46875 -1.5 C 0.46875 -1.84375 0.566406 -2.148438 0.765625 -2.421875 C 0.972656 -2.691406 1.25 -2.878906 1.59375 -2.984375 C 1.289062 -3.097656 1.050781 -3.273438 0.875 -3.515625 C 0.695312 -3.753906 0.609375 -4.03125 0.609375 -4.34375 C 0.609375 -4.644531 0.6875 -4.921875 0.84375 -5.171875 C 1 -5.421875 1.21875 -5.613281 1.5 -5.75 C 1.78125 -5.894531 2.109375 -5.96875 2.484375 -5.96875 C 2.859375 -5.96875 3.1875 -5.894531 3.46875 -5.75 C 3.75 -5.613281 3.96875 -5.421875 4.125 -5.171875 C 4.28125 -4.921875 4.359375 -4.644531 4.359375 -4.34375 C 4.359375 -4.03125 4.269531 -3.75 4.09375 -3.5 C 3.914062 -3.257812 3.675781 -3.085938 3.375 -2.984375 C 3.707031 -2.878906 3.976562 -2.691406 4.1875 -2.421875 C 4.394531 -2.148438 4.5 -1.84375 4.5 -1.5 C 4.5 -1.019531 4.316406 -0.640625 3.953125 -0.359375 C 3.585938 -0.078125 3.097656 0.0625 2.484375 0.0625 Z M 2.484375 -3.21875 C 2.867188 -3.21875 3.175781 -3.316406 3.40625 -3.515625 C 3.632812 -3.710938 3.75 -3.972656 3.75 -4.296875 C 3.75 -4.640625 3.628906 -4.914062 3.390625 -5.125 C 3.160156 -5.332031 2.859375 -5.4375 2.484375 -5.4375 C 2.109375 -5.4375 1.800781 -5.332031 1.5625 -5.125 C 1.332031 -4.914062 1.21875 -4.640625 1.21875 -4.296875 C 1.21875 -3.972656 1.332031 -3.710938 1.5625 -3.515625 C 1.800781 -3.316406 2.109375 -3.21875 2.484375 -3.21875 Z M 2.484375 -0.46875 C 2.910156 -0.46875 3.25 -0.5625 3.5 -0.75 C 3.75 -0.945312 3.875 -1.21875 3.875 -1.5625 C 3.875 -1.894531 3.742188 -2.171875 3.484375 -2.390625 C 3.222656 -2.609375 2.890625 -2.71875 2.484375 -2.71875 C 2.066406 -2.71875 1.726562 -2.609375 1.46875 -2.390625 C 1.21875 -2.179688 1.09375 -1.90625 1.09375 -1.5625 C 1.09375 -1.21875 1.21875 -0.945312 1.46875 -0.75 C 1.71875 -0.5625 2.054688 -0.46875 2.484375 -0.46875 Z M 2.484375 -0.46875 "/></g></g></g><g fill="#000000" fill-opacity="1"><g transform="translate(40.703287, 8.572631)"><g><path d="M 2.453125 0.0625 C 1.816406 0.0625 1.320312 -0.175781 0.96875 -0.65625 C 0.625 -1.132812 0.453125 -1.859375 0.453125 -2.828125 C 0.453125 -3.460938 0.539062 -4.015625 0.71875 -4.484375 C 0.894531 -4.953125 1.140625 -5.316406 1.453125 -5.578125 C 1.773438 -5.835938 2.148438 -5.96875 2.578125 -5.96875 C 3.179688 -5.96875 3.65625 -5.710938 4 -5.203125 C 4.34375 -4.703125 4.515625 -3.988281 4.515625 -3.0625 C 4.515625 -2.40625 4.425781 -1.84375 4.25 -1.375 C 4.082031 -0.90625 3.84375 -0.546875 3.53125 -0.296875 C 3.21875 -0.0546875 2.859375 0.0625 2.453125 0.0625 Z M 2.453125 -0.5 C 2.890625 -0.5 3.238281 -0.710938 3.5 -1.140625 C 3.769531 -1.566406 3.90625 -2.210938 3.90625 -3.078125 C 3.90625 -3.828125 3.785156 -4.398438 3.546875 -4.796875 C 3.316406 -5.203125 2.992188 -5.40625 2.578125 -5.40625 C 2.117188 -5.40625 1.75 -5.179688 1.46875 -4.734375 C 1.195312 -4.285156 1.0625 -3.648438 1.0625 -2.828125 C 1.0625 -2.035156 1.179688 -1.445312 1.421875 -1.0625 C 1.671875 -0.6875 2.015625 -0.5 2.453125 -0.5 Z M 2.453125 -0.5 "/></g></g></g></g></g><g transform="matrix(1, 0, 0, 1, 165, 270)"><g clip-path="url(#18070bce09)"><g fill="#000000" fill-opacity="1"><g transform="translate(1.657973, 9.540288)"><g><path d="M 4.03125 0.078125 C 3.332031 0.078125 2.722656 -0.0664062 2.203125 -0.359375 C 1.691406 -0.648438 1.296875 -1.070312 1.015625 -1.625 C 0.742188 -2.175781 0.609375 -2.84375 0.609375 -3.625 C 0.609375 -4.40625 0.757812 -5.097656 1.0625 -5.703125 C 1.375 -6.304688 1.800781 -6.773438 2.34375 -7.109375 C 2.882812 -7.453125 3.515625 -7.625 4.234375 -7.625 C 4.890625 -7.625 5.460938 -7.46875 5.953125 -7.15625 C 6.453125 -6.84375 6.835938 -6.410156 7.109375 -5.859375 C 7.390625 -5.304688 7.53125 -4.65625 7.53125 -3.90625 C 7.53125 -3.09375 7.378906 -2.390625 7.078125 -1.796875 C 6.773438 -1.203125 6.359375 -0.738281 5.828125 -0.40625 C 5.304688 -0.0820312 4.707031 0.078125 4.03125 0.078125 Z M 4.03125 -0.671875 C 4.550781 -0.671875 5.007812 -0.796875 5.40625 -1.046875 C 5.8125 -1.304688 6.125 -1.679688 6.34375 -2.171875 C 6.570312 -2.660156 6.6875 -3.25 6.6875 -3.9375 C 6.6875 -4.53125 6.585938 -5.046875 6.390625 -5.484375 C 6.191406 -5.929688 5.90625 -6.273438 5.53125 -6.515625 C 5.164062 -6.753906 4.734375 -6.875 4.234375 -6.875 C 3.691406 -6.875 3.207031 -6.738281 2.78125 -6.46875 C 2.363281 -6.195312 2.035156 -5.816406 1.796875 -5.328125 C 1.566406 -4.835938 1.453125 -4.269531 1.453125 -3.625 C 1.453125 -2.675781 1.679688 -1.945312 2.140625 -1.4375 C 2.597656 -0.925781 3.226562 -0.671875 4.03125 -0.671875 Z M 4.03125 -0.671875 "/></g></g></g><g fill="#000000" fill-opacity="1"><g transform="translate(11.60211, 9.540288)"><g><path d="M 1 0 L 0.109375 0 L 2.0625 -2.65625 L 0.203125 -5.265625 L 1.140625 -5.265625 L 2.546875 -3.3125 L 3.96875 -5.265625 L 4.859375 -5.265625 L 2.984375 -2.6875 L 4.890625 0 L 3.96875 0 L 2.5 -2.0625 Z M 1 0 "/></g></g></g><g fill="#000000" fill-opacity="1"><g transform="translate(18.507388, 9.540288)"><g><path d="M 1.015625 0 L 1.015625 -4.609375 L -0.046875 -4.609375 L -0.046875 -5.265625 L 1.015625 -5.265625 L 1.015625 -5.75 C 1.015625 -6.425781 1.191406 -6.957031 1.546875 -7.34375 C 1.910156 -7.738281 2.382812 -7.9375 2.96875 -7.9375 C 3.457031 -7.9375 3.835938 -7.816406 4.109375 -7.578125 C 4.390625 -7.335938 4.550781 -7 4.59375 -6.5625 L 3.9375 -6.484375 C 3.875 -7.015625 3.546875 -7.28125 2.953125 -7.28125 C 2.585938 -7.28125 2.296875 -7.15625 2.078125 -6.90625 C 1.867188 -6.65625 1.765625 -6.300781 1.765625 -5.84375 L 1.765625 -5.265625 L 3.578125 -5.265625 L 3.578125 -4.609375 L 1.78125 -4.609375 L 1.78125 0 Z M 1.015625 0 "/></g></g></g><g fill="#000000" fill-opacity="1"><g transform="translate(23.53832, 9.540288)"><g><path d="M 3.09375 -5.359375 C 3.820312 -5.359375 4.394531 -5.125 4.8125 -4.65625 C 5.226562 -4.1875 5.4375 -3.550781 5.4375 -2.75 C 5.4375 -2.207031 5.332031 -1.722656 5.125 -1.296875 C 4.914062 -0.867188 4.625 -0.53125 4.25 -0.28125 C 3.882812 -0.0390625 3.445312 0.078125 2.9375 0.078125 C 2.195312 0.078125 1.613281 -0.15625 1.1875 -0.625 C 0.769531 -1.09375 0.5625 -1.734375 0.5625 -2.546875 C 0.5625 -3.078125 0.664062 -3.554688 0.875 -3.984375 C 1.082031 -4.410156 1.375 -4.742188 1.75 -4.984375 C 2.132812 -5.234375 2.582031 -5.359375 3.09375 -5.359375 Z M 2.9375 -0.625 C 3.445312 -0.625 3.859375 -0.816406 4.171875 -1.203125 C 4.484375 -1.597656 4.640625 -2.113281 4.640625 -2.75 C 4.640625 -3.363281 4.503906 -3.832031 4.234375 -4.15625 C 3.960938 -4.488281 3.585938 -4.65625 3.109375 -4.65625 C 2.753906 -4.65625 2.445312 -4.566406 2.1875 -4.390625 C 1.925781 -4.210938 1.722656 -3.960938 1.578125 -3.640625 C 1.429688 -3.328125 1.359375 -2.960938 1.359375 -2.546875 C 1.359375 -1.921875 1.5 -1.441406 1.78125 -1.109375 C 2.0625 -0.785156 2.445312 -0.625 2.9375 -0.625 Z M 2.9375 -0.625 "/></g></g></g><g fill="#000000" fill-opacity="1"><g transform="translate(31.396559, 9.540288)"><g><path d="M 3.78125 -4.53125 C 3.707031 -4.550781 3.632812 -4.566406 3.5625 -4.578125 C 3.5 -4.585938 3.425781 -4.59375 3.34375 -4.59375 C 2.726562 -4.59375 2.273438 -4.226562 1.984375 -3.5 C 1.703125 -2.78125 1.5625 -1.613281 1.5625 0 L 0.8125 0 L 0.8125 -3.375 L 0.796875 -5.265625 L 1.5625 -5.265625 L 1.515625 -3.390625 C 1.679688 -4.097656 1.929688 -4.601562 2.265625 -4.90625 C 2.609375 -5.207031 2.976562 -5.359375 3.375 -5.359375 C 3.476562 -5.359375 3.570312 -5.351562 3.65625 -5.34375 C 3.75 -5.332031 3.832031 -5.3125 3.90625 -5.28125 Z M 3.78125 -4.53125 "/></g></g></g><g fill="#000000" fill-opacity="1"><g transform="translate(36.904002, 9.540288)"><g><path d="M 5.3125 -7.84375 L 5.3125 0 L 4.53125 0 L 4.5625 -1.234375 C 4.363281 -0.828125 4.097656 -0.503906 3.765625 -0.265625 C 3.429688 -0.0351562 3.050781 0.078125 2.625 0.078125 C 2.175781 0.078125 1.800781 -0.0234375 1.5 -0.234375 C 1.195312 -0.441406 0.960938 -0.726562 0.796875 -1.09375 C 0.640625 -1.46875 0.5625 -1.898438 0.5625 -2.390625 C 0.5625 -2.972656 0.664062 -3.488281 0.875 -3.9375 C 1.09375 -4.382812 1.390625 -4.734375 1.765625 -4.984375 C 2.148438 -5.234375 2.59375 -5.359375 3.09375 -5.359375 C 3.40625 -5.359375 3.691406 -5.289062 3.953125 -5.15625 C 4.210938 -5.019531 4.414062 -4.835938 4.5625 -4.609375 L 4.53125 -5.265625 L 4.53125 -7.84375 Z M 3.109375 -4.65625 C 2.578125 -4.65625 2.148438 -4.453125 1.828125 -4.046875 C 1.515625 -3.648438 1.359375 -3.117188 1.359375 -2.453125 C 1.359375 -1.878906 1.476562 -1.429688 1.71875 -1.109375 C 1.96875 -0.785156 2.304688 -0.625 2.734375 -0.625 C 3.078125 -0.625 3.382812 -0.722656 3.65625 -0.921875 C 3.9375 -1.128906 4.15625 -1.410156 4.3125 -1.765625 C 4.46875 -2.128906 4.546875 -2.546875 4.546875 -3.015625 C 4.546875 -3.523438 4.414062 -3.925781 4.15625 -4.21875 C 3.90625 -4.507812 3.554688 -4.65625 3.109375 -4.65625 Z M 3.109375 -4.65625 "/></g></g></g></g></g><path stroke-linecap="butt" transform="matrix(0.75, -0.000000000000000186, 0.000000000000000186, 0.75, 99.244296, 241.517811)" fill="none" stroke-linejoin="miter" d="M 0.00239649 9.002294 L 226.200328 9.002294 " stroke="#000000" stroke-width="18" stroke-opacity="1" stroke-miterlimit="4"/><g transform="matrix(1, 0, 0, 1, 142, 242)"><g clip-path="url(#0ad800cf00)"><g fill="#e4e2de" fill-opacity="1"><g transform="translate(0.681001, 8.905604)"><g><path d="M 4.75 -6.25 L 5.84375 -6.25 L 5.84375 0 L 4.84375 0 L 1.734375 -4.359375 L 1.734375 0 L 0.640625 0 L 0.640625 -6.25 L 1.640625 -6.25 L 4.75 -1.890625 Z M 4.75 -6.25 "/></g></g></g><g fill="#e4e2de" fill-opacity="1"><g transform="translate(14.220654, 8.905604)"><g><path d="M -0.09375 0 L 2.578125 -6.25 L 3.546875 -6.25 L 6.109375 0 L 4.9375 0 L 4.375 -1.421875 L 1.65625 -1.421875 L 1.078125 0 Z M 2.046875 -2.390625 L 4.015625 -2.390625 L 3.046875 -4.84375 Z M 2.046875 -2.390625 "/></g></g></g><g fill="#e4e2de" fill-opacity="1"><g transform="translate(27.320334, 8.905604)"><g><path d="M 5.171875 -6.25 L 5.03125 -5.25 L 3.09375 -5.25 L 3.09375 0 L 1.953125 0 L 1.953125 -5.25 L -0.046875 -5.25 L -0.046875 -6.25 Z M 5.171875 -6.25 "/></g></g></g><g fill="#e4e2de" fill-opacity="1"><g transform="translate(39.416873, 8.905604)"><g><path d="M -0.09375 0 L 2.578125 -6.25 L 3.546875 -6.25 L 6.109375 0 L 4.9375 0 L 4.375 -1.421875 L 1.65625 -1.421875 L 1.078125 0 Z M 2.046875 -2.390625 L 4.015625 -2.390625 L 3.046875 -4.84375 Z M 2.046875 -2.390625 "/></g></g></g><g fill="#e4e2de" fill-opacity="1"><g transform="translate(52.516553, 8.905604)"><g><path d="M 2.59375 0.078125 C 1.851562 0.078125 1.273438 -0.0820312 0.859375 -0.40625 C 0.453125 -0.738281 0.222656 -1.222656 0.171875 -1.859375 L 1.234375 -2.015625 C 1.347656 -1.265625 1.816406 -0.890625 2.640625 -0.890625 C 2.992188 -0.890625 3.269531 -0.957031 3.46875 -1.09375 C 3.675781 -1.238281 3.78125 -1.441406 3.78125 -1.703125 C 3.78125 -1.941406 3.675781 -2.117188 3.46875 -2.234375 C 3.269531 -2.359375 2.953125 -2.472656 2.515625 -2.578125 C 2.109375 -2.679688 1.753906 -2.800781 1.453125 -2.9375 C 1.160156 -3.070312 0.9375 -3.253906 0.78125 -3.484375 C 0.625 -3.722656 0.546875 -4.035156 0.546875 -4.421875 C 0.546875 -4.796875 0.640625 -5.125 0.828125 -5.40625 C 1.023438 -5.695312 1.289062 -5.921875 1.625 -6.078125 C 1.957031 -6.242188 2.34375 -6.328125 2.78125 -6.328125 C 3.363281 -6.328125 3.835938 -6.175781 4.203125 -5.875 C 4.578125 -5.570312 4.796875 -5.15625 4.859375 -4.625 L 3.859375 -4.453125 C 3.734375 -5.054688 3.359375 -5.359375 2.734375 -5.359375 C 2.429688 -5.359375 2.179688 -5.28125 1.984375 -5.125 C 1.796875 -4.96875 1.703125 -4.757812 1.703125 -4.5 C 1.703125 -4.238281 1.796875 -4.039062 1.984375 -3.90625 C 2.171875 -3.769531 2.492188 -3.648438 2.953125 -3.546875 C 3.347656 -3.453125 3.691406 -3.34375 3.984375 -3.21875 C 4.285156 -3.09375 4.515625 -2.914062 4.671875 -2.6875 C 4.835938 -2.46875 4.921875 -2.164062 4.921875 -1.78125 C 4.921875 -1.414062 4.820312 -1.09375 4.625 -0.8125 C 4.425781 -0.53125 4.148438 -0.3125 3.796875 -0.15625 C 3.453125 0 3.050781 0.078125 2.59375 0.078125 Z M 2.59375 0.078125 "/></g></g></g><g fill="#e4e2de" fill-opacity="1"><g transform="translate(64.718686, 8.905604)"><g><path d="M 0.640625 0 L 0.640625 -6.25 L 1.78125 -6.25 L 1.78125 -3.65625 L 4.734375 -3.65625 L 4.734375 -6.25 L 5.890625 -6.25 L 5.890625 0 L 4.734375 0 L 4.734375 -2.65625 L 1.78125 -2.65625 L 1.78125 0 Z M 0.640625 0 "/></g></g></g><g fill="#e4e2de" fill-opacity="1"><g transform="translate(78.293537, 8.905604)"><g><path d="M -0.09375 0 L 2.578125 -6.25 L 3.546875 -6.25 L 6.109375 0 L 4.9375 0 L 4.375 -1.421875 L 1.65625 -1.421875 L 1.078125 0 Z M 2.046875 -2.390625 L 4.015625 -2.390625 L 3.046875 -4.84375 Z M 2.046875 -2.390625 "/></g></g></g></g></g></svg>